// menu bar svg
<svg width="38" height="35" viewBox="0 0 38 35" fill="none" xmlns="http://www.w3.org/2000/svg">
<path d="M4.75 26.25V23.3333H33.25V26.25H4.75ZM4.75 18.9583V16.0417H33.25V18.9583H4.75ZM4.75 11.6667V8.75H33.25V11.6667H4.75Z" fill="#FEF7FF"/>
</svg>


// Profile svg
<svg width="48" height="48" viewBox="0 0 48 48" fill="none" xmlns="http://www.w3.org/2000/svg">
<path d="M40 42V38C40 35.8783 39.1571 33.8434 37.6569 32.3431C36.1566 30.8429 34.1217 30 32 30H16C13.8783 30 11.8434 30.8429 10.3431 32.3431C8.84285 33.8434 8 35.8783 8 38V42M32 14C32 18.4183 28.4183 22 24 22C19.5817 22 16 18.4183 16 14C16 9.58172 19.5817 6 24 6C28.4183 6 32 9.58172 32 14Z" stroke="#F3F3F3" stroke-width="4" stroke-linecap="round" stroke-linejoin="round"/>
</svg>
